<?xml version="1.0" encoding="UTF-8" standalone="no"?>
<svg
   version="1.1"
   viewBox="-5 -10 120 120"
   id="svg2"
   sodipodi:docname="noun-rotate-8192423.svg"
   width="120"
   height="120"
   inkscape:version="1.4.3 (0d15f75, 2025-12-25)"
   xmlns:inkscape="http://www.inkscape.org/namespaces/inkscape"
   xmlns:sodipodi="http://sodipodi.sourceforge.net/DTD/sodipodi-0.dtd"
   xmlns="http://www.w3.org/2000/svg"
   xmlns:svg="http://www.w3.org/2000/svg">
  <defs
     id="defs2" />
  <sodipodi:namedview
     id="namedview2"
     pagecolor="#ffffff"
     bordercolor="#000000"
     borderopacity="0.25"
     inkscape:showpageshadow="2"
     inkscape:pageopacity="0.0"
     inkscape:pagecheckerboard="0"
     inkscape:deskcolor="#d1d1d1"
     inkscape:zoom="2.1789364"
     inkscape:cx="171.87284"
     inkscape:cy="61.038953"
     inkscape:window-width="1728"
     inkscape:window-height="999"
     inkscape:window-x="0"
     inkscape:window-y="38"
     inkscape:window-maximized="1"
     inkscape:current-layer="svg2" />
  <path
     d="m 95.539863,22.582 -4.168,13.207 v 0.0039 c -0.41406,1.3086 -1.6289,2.1992 -3,2.207 -0.30469,0.03906 -0.61328,0.03906 -0.91797,0 l -13.207,-4.168 c -1.6562,-0.50391 -2.5898,-2.2578 -2.082,-3.9141 0.50391,-1.6562 2.2578,-2.5898 3.9141,-2.0859 l 6.832,2.082 0.0039,0.0039 c -7.043,-9.7148 -18.645,-15.047 -30.598,-14.066 -11.957,0.98047 -22.535,8.1289 -27.902,18.855 -0.84375,1.3789 -2.5977,1.8867 -4.0469,1.1719 -1.4492,-0.71094 -2.1172,-2.4141 -1.5391,-3.9219 6.2812,-12.723 18.758,-21.234 32.895,-22.445 14.137,-1.207 27.879,5.0586 36.23,16.531 l 1.5859,-5.2109 c 0.24219,-0.79297 0.79297,-1.4609 1.5273,-1.8516 0.73438,-0.39062 1.5938,-0.47266 2.3867,-0.23047 1.6562,0.50781 2.5898,2.2617 2.0859,3.918 z m -5.793,42.836 c -1.543,-0.75391 -3.4023,-0.12109 -4.168,1.4141 -5.3516,10.801 -15.977,18 -27.988,18.973 -12.012,0.97266 -23.656,-4.4258 -30.676,-14.223 l 6.832,2.082 v 0.0039 c 1.6523,0.46484 3.3789,-0.45312 3.918,-2.0859 0.48828,-1.6523 -0.4375,-3.3945 -2.0859,-3.9141 l -13.207,-4.168 c -1.6562,-0.48828 -3.3984,0.4375 -3.918,2.082 l -4,13.586 c -0.48828,1.6523 0.4375,3.3945 2.0859,3.9141 0.30469,0.04297 0.60938,0.04297 0.91406,0 1.375,-0.0078 2.5859,-0.89844 3,-2.207 l 1.582,-5.293 h 0.0039 c 8.3594,11.453 22.086,17.711 36.215,16.512 14.125,-1.2031 26.602,-9.6875 32.91,-22.387 0.41406,-0.75 0.49609,-1.6406 0.22656,-2.4531 -0.26953,-0.81641 -0.86328,-1.4805 -1.6445,-1.8359 z"
     id="path1"
     style="fill:#666666" />
</svg>
