<?xml version="1.0" encoding="UTF-8" standalone="no"?>
<svg
   version="1.1"
   x="0px"
   y="0px"
   viewBox="0 0 100 100"
   xml:space="preserve"
   id="svg2"
   sodipodi:docname="noun-next-1548812.svg"
   width="100"
   height="100"
   inkscape:version="1.4.3 (0d15f75, 2025-12-25)"
   xmlns:inkscape="http://www.inkscape.org/namespaces/inkscape"
   xmlns:sodipodi="http://sodipodi.sourceforge.net/DTD/sodipodi-0.dtd"
   xmlns="http://www.w3.org/2000/svg"
   xmlns:svg="http://www.w3.org/2000/svg"><defs
     id="defs2" /><sodipodi:namedview
     id="namedview2"
     pagecolor="#ffffff"
     bordercolor="#000000"
     borderopacity="0.25"
     inkscape:showpageshadow="2"
     inkscape:pageopacity="0.0"
     inkscape:pagecheckerboard="0"
     inkscape:deskcolor="#d1d1d1"
     inkscape:zoom="3.328"
     inkscape:cx="46.274039"
     inkscape:cy="80.228366"
     inkscape:window-width="1728"
     inkscape:window-height="999"
     inkscape:window-x="0"
     inkscape:window-y="38"
     inkscape:window-maximized="1"
     inkscape:current-layer="g1" /><g
     id="g1"
     style="fill:#666666"
     transform="translate(4)"><path
       id="path1"
       style="fill:#666666"
       d="m 37.412109,22.480469 c -2.536317,0.03838 -4.749696,2.295152 -4.732121,4.832408 -0.09624,1.707159 0.835156,3.278168 2.108787,4.348875 6.179761,6.179178 12.359717,12.35816 18.53935,18.537467 -6.490374,6.50753 -13.015998,12.981705 -19.484369,19.510056 -1.925903,2.17717 -1.393194,5.983578 1.140028,7.46198 2.084861,1.33458 5.020818,0.739798 6.567415,-1.148272 7.52444,-7.539692 15.078777,-15.05087 22.584542,-22.608374 1.765701,-1.9905 1.515215,-5.332215 -0.504141,-7.058363 C 56.032686,38.779594 48.474378,31.159754 40.850102,23.610076 39.89878,22.817987 38.645284,22.421388 37.412109,22.480469 Z" /></g></svg>
